<svg width="801" height="538" viewBox="0 0 801 538" fill="none" xmlns="http://www.w3.org/2000/svg">
<path d="M15.2039 301.582L109.229 118.456L193.338 122.553L97.3296 305.583L15.2039 301.582ZM13.1361 344.034L15.2039 301.582L37.7296 280.012L249.59 290.332L246.42 355.397L13.1361 344.034ZM143.078 403.255L151.117 238.211L228.482 241.979L220.442 407.024L143.078 403.255ZM545.614 327.419L639.639 144.293L723.748 148.39L627.74 331.42L545.614 327.419ZM543.546 369.871L545.614 327.419L568.14 305.849L780 316.169L776.831 381.234L543.546 369.871ZM673.488 429.092L681.527 264.048L758.892 267.816L750.852 432.861L673.488 429.092Z" fill="white"/>
<mask id="mask0_1_39" style="mask-type:alpha" maskUnits="userSpaceOnUse" x="177" y="78" width="445" height="395">
<path d="M621.073 417.741L224.874 472.751L206.171 338.043L602.37 283.033L621.073 417.741Z" fill="#D9D9D9"/>
<path d="M593.981 222.613L197.782 277.622L177.703 133.01L573.903 78L593.981 222.613Z" fill="#D9D9D9"/>
</mask>
<g mask="url(#mask0_1_39)">
<path d="M379.708 137.483C403.839 134.132 426.203 137.31 446.799 147.016C467.17 157.02 484.244 172.161 498.021 192.438C511.834 212.977 520.689 237.28 524.585 265.345C528.482 293.41 526.696 319.056 519.227 342.283C511.495 365.547 499.174 384.635 482.263 399.548C465.352 414.462 444.831 423.594 420.7 426.944C396.307 430.331 373.943 427.153 353.609 417.411C333.012 407.706 315.956 392.696 302.442 372.382C288.665 352.105 279.811 327.803 275.878 299.475C271.944 271.148 273.844 245.352 281.575 222.089C289.044 198.862 301.234 179.792 318.145 164.878C335.056 149.965 355.577 140.833 379.708 137.483ZM389.388 204.313C379.683 205.66 371.84 209.824 365.858 216.803C359.876 223.783 355.981 233.28 354.174 245.294C352.14 257.607 352.271 272.026 354.565 288.55C356.859 305.075 360.644 318.852 365.918 329.883C370.931 340.951 377.265 349.027 384.922 354.113C392.616 359.461 401.446 361.444 411.413 360.06C420.856 358.749 428.568 354.603 434.55 347.624C440.532 340.644 444.558 331.129 446.628 319.078C448.435 307.064 448.192 292.795 445.898 276.27C443.603 259.746 439.932 245.819 434.883 234.489C429.609 223.458 423.125 215.268 415.431 209.92C407.774 204.834 399.093 202.965 389.388 204.313Z" fill="white"/>
</g>
</svg>
