<svg width="15" height="15" viewBox="0 0 15 15" fill="none" xmlns="http://www.w3.org/2000/svg">
<path d="M14.3172 0.776309C14.1839 0.689814 14.0349 0.630424 13.8787 0.60153C13.7224 0.572636 13.5621 0.574805 13.4067 0.607912C13.2513 0.64102 13.1039 0.704418 12.973 0.794485C12.8422 0.884551 12.7303 0.999522 12.6439 1.13283L5.86437 11.5828L2.5581 8.52576C2.44145 8.4179 2.3047 8.33407 2.15565 8.27906C2.0066 8.22406 1.84818 8.19894 1.68943 8.20516C1.36882 8.21772 1.06633 8.35712 0.8485 8.5927C0.630671 8.82829 0.51535 9.14076 0.527905 9.46137C0.54046 9.78198 0.679864 10.0845 0.915448 10.3023L5.25659 14.316C5.25659 14.316 5.38121 14.4232 5.43888 14.4607C5.57217 14.5473 5.7212 14.6067 5.87747 14.6357C6.03374 14.6646 6.19418 14.6624 6.34962 14.6293C6.50505 14.5962 6.65244 14.5328 6.78336 14.4427C6.91427 14.3526 7.02615 14.2376 7.11259 14.1042L14.6737 2.44961C14.7602 2.31634 14.8196 2.16733 14.8485 2.01111C14.8774 1.85488 14.8752 1.69449 14.8421 1.5391C14.809 1.38371 14.7456 1.23637 14.6555 1.10548C14.5654 0.974602 14.4505 0.862747 14.3172 0.776309Z" fill="white"/>
</svg>
