<svg width="21" height="21" viewBox="0 0 21 21" fill="none" xmlns="http://www.w3.org/2000/svg">
<g clip-path="url(#clip0_346_1260)">
<path d="M3.40027 5.3674H16.1833C17.3411 5.3674 18.1771 6.43447 17.8595 7.50826L16.4698 12.2135C16.2555 12.936 15.5716 13.4334 14.7935 13.4334H7.09888C6.32 13.4334 5.63523 12.9352 5.42182 12.2135L3.40027 5.3674ZM3.40027 5.3674L2.80372 3.35089C2.38361 3.21086 1.45938 2.93079 1.12329 2.93079M14.1466 18.4747C14.4808 18.4747 14.8014 18.3419 15.0378 18.1056C15.2741 17.8692 15.4069 17.5487 15.4069 17.2144C15.4069 16.8801 15.2741 16.5596 15.0378 16.3232C14.8014 16.0869 14.4808 15.9541 14.1466 15.9541C13.8123 15.9541 13.4918 16.0869 13.2554 16.3232C13.019 16.5596 12.8863 16.8801 12.8863 17.2144C12.8863 17.5487 13.019 17.8692 13.2554 18.1056C13.4918 18.3419 13.8123 18.4747 14.1466 18.4747ZM7.42488 18.4747C7.75914 18.4747 8.07971 18.3419 8.31606 18.1056C8.55242 17.8692 8.6852 17.5487 8.6852 17.2144C8.6852 16.8801 8.55242 16.5596 8.31606 16.3232C8.07971 16.0869 7.75914 15.9541 7.42488 15.9541C7.09063 15.9541 6.77006 16.0869 6.5337 16.3232C6.29735 16.5596 6.16457 16.8801 6.16457 17.2144C6.16457 17.5487 6.29735 17.8692 6.5337 18.1056C6.77006 18.3419 7.09063 18.4747 7.42488 18.4747Z" stroke="white" stroke-width="0.806604" stroke-linecap="round" stroke-linejoin="round"/>
</g>
<defs>
<clipPath id="clip0_346_1260">
<rect width="20.1651" height="20.1651" fill="white" transform="translate(0.283081 0.830322)"/>
</clipPath>
</defs>
</svg>
