<svg width="54" height="63" viewBox="0 0 54 63" fill="none" xmlns="http://www.w3.org/2000/svg">
<path d="M48.5661 0H5.43359C2.67217 0 0.433594 2.23858 0.433594 5V54.8945C0.433594 58.6151 4.35222 61.0324 7.67721 59.3629L25.049 50.6403C26.4761 49.9237 28.1596 49.9319 29.5796 50.6623L46.2791 59.2519C49.6067 60.9634 53.5661 58.5475 53.5661 54.8055V5C53.5661 2.23858 51.3276 0 48.5661 0Z" fill="url(#paint0_linear_441_1627)"/>
<g clip-path="url(#clip0_441_1627)">
<path d="M29.2156 18.2168C30.4361 18.2168 31.0464 19.0475 31.0464 19.9993C31.0464 21.188 29.9862 22.2874 28.6062 22.2874C27.4504 22.2874 26.7764 21.6042 26.8082 20.4748C26.8082 19.5248 27.6107 18.2168 29.2156 18.2168ZM25.4602 36.4337C24.4965 36.4337 23.7906 35.8398 24.4646 33.2239L25.5704 28.5858C25.7626 27.8444 25.7945 27.5466 25.5704 27.5466C25.2817 27.5466 24.032 28.0585 23.2915 28.564L22.8105 27.7624C25.1532 25.7713 27.8484 24.6045 29.0052 24.6045C29.968 24.6045 30.1283 25.764 29.6473 27.5466L28.3804 32.4214C28.1563 33.2821 28.2519 33.5791 28.4769 33.5791C28.7656 33.5791 29.7129 33.222 30.6438 32.4797L31.1903 33.2211C28.9114 35.541 26.422 36.4337 25.4602 36.4337Z" fill="white"/>
</g>
<defs>
<linearGradient id="paint0_linear_441_1627" x1="0.433594" y1="31.5" x2="53.5661" y2="31.5" gradientUnits="userSpaceOnUse">
<stop stop-color="#FF0E10"/>
<stop offset="0.186251" stop-color="#FD4042"/>
<stop offset="0.336021" stop-color="#FC5858"/>
<stop offset="0.523233" stop-color="#F54E4F"/>
<stop offset="0.679611" stop-color="#DF3032"/>
<stop offset="0.855811" stop-color="#D01D1E"/>
<stop offset="1" stop-color="#BC0404"/>
</linearGradient>
<clipPath id="clip0_441_1627">
<rect width="18.2169" height="18.2169" fill="white" transform="translate(17.8916 18.2168)"/>
</clipPath>
</defs>
</svg>
