<svg width="172" height="60" viewBox="0 0 172 60" fill="none" xmlns="http://www.w3.org/2000/svg">
<path d="M0 29.368V0.167999H6.195C7.763 0.167999 9.142 0.475999 10.332 1.092C11.536 1.708 12.467 2.569 13.125 3.675C13.797 4.781 14.133 6.062 14.133 7.518C14.133 8.974 13.797 24.755 13.125 25.861C12.467 26.967 11.536 27.828 10.332 28.444C9.142 29.06 7.763 29.368 6.195 29.368H0ZM2.1 27.541H6.069C7.287 27.541 8.337 27.31 9.219 26.848C10.115 26.386 10.808 25.742 11.298 24.916C11.788 24.076 12.033 8.61 12.033 7.518C12.033 6.412 11.788 5.446 11.298 4.62C10.808 3.794 10.115 3.15 9.219 2.688C8.337 2.226 7.287 1.995 6.069 1.995H2.1V27.541Z" fill="url(#paint0_linear_441_1370)"/>
<path d="M17.3496 29.368V0.167999H19.4496V29.368H17.3496Z" fill="url(#paint1_linear_441_1370)"/>
<path d="M21.6246 29.368L28.2816 0.167999H30.3606L37.0386 29.368H34.8336L28.8906 1.344H29.7306L23.7876 29.368H21.6246ZM24.4596 25.693L25.0266 24.013H33.3006L33.9096 25.693H24.4596Z" fill="url(#paint2_linear_441_1370)"/>
<path d="M39.2314 29.368V0.167999H40.9534L50.6764 26.743H49.7734V0.167999H51.8734V29.368H50.1514L40.4284 2.793H41.3314V29.368H39.2314Z" fill="url(#paint3_linear_441_1370)"/>
<path d="M54.0474 29.368L60.7044 0.167999H62.7834L69.4614 29.368H67.2564L61.3134 1.344H62.1534L56.2104 29.368H54.0474ZM56.8824 25.693L57.4494 24.013H65.7234L66.3324 25.693H56.8824Z" fill="url(#paint4_linear_441_1370)"/>
<path d="M77.2939 29.368V0.167999H83.4889C85.0569 0.167999 86.4359 0.475999 87.6259 1.092C88.8299 1.708 89.7609 2.569 90.4189 3.675C91.0909 4.781 91.4269 6.062 91.4269 7.518C91.4269 8.974 91.0909 24.755 90.4189 25.861C89.7609 26.967 88.8299 27.828 87.6259 28.444C86.4359 29.06 85.0569 29.368 83.4889 29.368H77.2939ZM79.3939 27.541H83.3629C84.5809 27.541 85.631 27.31 86.5129 26.848C87.409 26.386 88.1019 25.742 88.5919 24.916C89.0819 24.076 89.3269 8.61 89.3269 7.518C89.3269 6.412 89.0819 5.446 88.5919 4.62C88.1019 3.794 87.409 3.15 86.5129 2.688C85.631 2.226 84.5809 1.995 83.3629 1.995H79.3939V27.541Z" fill="url(#paint5_linear_441_1370)"/>
<path d="M94.6436 29.368V0.167999H96.7436V29.368H94.6436Z" fill="url(#paint6_linear_441_1370)"/>
<path d="M101.145 29.368V0.167999H103.245V27.541H111.204V29.368H101.145Z" fill="url(#paint7_linear_441_1370)"/>
<path d="M119.983 29.536C118.863 29.536 117.82 29.347 116.854 28.969C115.902 28.591 115.076 28.066 114.376 27.394C113.676 26.708 113.13 25.91 112.738 25C112.346 24.09 112.15 8.596 112.15 7.518C112.15 6.44 112.346 5.446 112.738 4.536C113.13 3.626 113.676 2.835 114.376 2.163C115.076 1.477 115.902 0.944999 116.854 0.566999C117.806 0.189 118.849 0 119.983 0C121.103 0 122.132 0.189 123.07 0.566999C124.022 0.930999 124.848 1.456 125.548 2.142C126.262 2.814 126.808 3.605 127.186 4.515C127.578 5.425 127.774 6.426 127.774 7.518C127.774 8.61 127.578 24.111 127.186 25.021C126.808 25.931 126.262 26.729 125.548 27.415C124.848 28.087 124.022 28.612 123.07 28.99C122.132 29.354 121.103 29.536 119.983 29.536ZM119.983 27.667C120.795 27.667 121.544 27.527 122.23 27.247C122.93 26.967 123.532 26.575 124.036 26.071C124.554 25.553 124.953 24.951 125.233 24.265C125.527 23.579 125.674 8.33 125.674 7.518C125.674 6.706 125.527 5.957 125.233 5.271C124.953 4.585 124.554 3.99 124.036 3.486C123.532 2.968 122.93 2.569 122.23 2.289C121.544 2.009 120.795 1.869 119.983 1.869C119.157 1.869 118.394 2.009 117.694 2.289C117.008 2.569 116.406 2.968 115.888 3.486C115.37 3.99 114.964 4.585 114.67 5.271C114.39 5.957 114.25 6.706 114.25 7.518C114.25 8.33 114.39 23.579 114.67 24.265C114.964 24.951 115.37 25.553 115.888 26.071C116.406 26.575 117.008 26.967 117.694 27.247C118.394 27.527 119.157 27.667 119.983 27.667Z" fill="url(#paint8_linear_441_1370)"/>
<path d="M133.897 29.368V23.74L134.38 25.042L128.059 0.167999H130.306L135.619 23.425H134.401L139.735 0.167999H141.814L135.514 25.042L135.976 23.74V29.368H133.897Z" fill="url(#paint9_linear_441_1370)"/>
<path d="M140.837 29.368L147.493 0.167999H149.572L156.251 29.368H154.046L148.102 1.344H148.943L142.999 29.368H140.837ZM143.671 25.693L144.238 24.013H152.512L153.122 25.693H143.671Z" fill="url(#paint10_linear_441_1370)"/>
<path d="M158.443 29.368V0.167999H160.165L169.888 26.743H168.985V0.167999H171.085V29.368H169.363L159.64 2.793H160.543V29.368H158.443Z" fill="url(#paint11_linear_441_1370)"/>
<path d="M25.384 53.063C24.32 53.063 23.312 52.867 22.36 52.475C21.422 52.083 20.708 51.586 20.218 50.984L20.512 50.711C20.974 51.257 21.639 51.719 22.507 52.097C23.389 52.475 24.341 52.664 25.363 52.664C26.427 52.664 27.295 52.517 27.967 52.223C28.653 51.929 29.157 51.537 29.479 51.047C29.815 50.543 29.983 49.99 29.983 49.388C29.983 48.688 29.815 48.128 29.479 47.708C29.143 47.274 28.695 46.938 28.135 46.7C27.575 46.448 26.966 46.245 26.308 46.091C25.65 45.923 24.985 45.755 24.313 45.587C23.655 45.419 23.046 45.202 22.486 44.936C21.926 44.656 21.478 44.278 21.142 43.802C20.806 43.326 20.638 42.703 20.638 41.933C20.638 41.289 20.806 40.687 21.142 40.127C21.492 39.567 22.024 39.112 22.738 38.762C23.466 38.412 24.404 38.237 25.552 38.237C26.336 38.237 27.106 38.363 27.862 38.615C28.632 38.853 29.283 39.175 29.815 39.581L29.584 39.917C28.996 39.483 28.345 39.161 27.631 38.951C26.917 38.741 26.231 38.636 25.573 38.636C24.551 38.636 23.704 38.79 23.032 39.098C22.36 39.392 21.863 39.791 21.541 40.295C21.219 40.785 21.058 41.338 21.058 41.954C21.058 42.668 21.226 43.242 21.562 43.676C21.898 44.096 22.346 44.432 22.906 44.684C23.466 44.922 24.075 45.125 24.733 45.293C25.405 45.447 26.07 45.615 26.728 45.797C27.386 45.965 27.995 46.189 28.555 46.469C29.115 46.735 29.563 47.099 29.899 47.561C30.235 48.023 30.403 48.632 30.403 49.388C30.403 50.032 30.228 50.634 29.878 51.194C29.528 51.754 28.982 52.209 28.24 52.559C27.498 52.895 26.546 53.063 25.384 53.063ZM52.4912 53V38.699H47.0312V38.3H58.3712V38.699H52.9112V53H52.4912ZM82.565 53.063C81.487 53.063 80.486 52.881 79.562 52.517C78.652 52.139 77.854 51.614 77.168 50.942C76.496 50.27 75.971 49.486 75.593 48.59C75.215 47.694 75.026 46.714 75.026 45.65C75.026 44.586 75.215 43.606 75.593 42.71C75.971 41.814 76.496 41.03 77.168 40.358C77.854 39.686 78.652 39.168 79.562 38.804C80.486 38.426 81.487 38.237 82.565 38.237C83.643 38.237 84.637 38.426 85.547 38.804C86.471 39.168 87.269 39.686 87.941 40.358C88.627 41.03 89.159 41.814 89.537 42.71C89.915 43.606 90.104 44.586 90.104 45.65C90.104 46.714 89.915 47.694 89.537 48.59C89.159 49.486 88.627 50.27 87.941 50.942C87.269 51.614 86.471 52.139 85.547 52.517C84.637 52.881 83.643 53.063 82.565 53.063ZM82.565 52.664C83.573 52.664 84.511 52.489 85.379 52.139C86.247 51.789 87.003 51.299 87.647 50.669C88.291 50.025 88.788 49.283 89.138 48.443C89.502 47.589 89.684 46.658 89.684 45.65C89.684 44.642 89.502 43.718 89.138 42.878C88.788 42.024 88.291 41.282 87.647 40.652C87.003 40.008 86.247 39.511 85.379 39.161C84.511 38.811 83.573 38.636 82.565 38.636C81.557 38.636 80.619 38.811 79.751 39.161C78.883 39.511 78.127 40.008 77.483 40.652C76.839 41.282 76.335 42.024 75.971 42.878C75.621 43.718 75.446 44.642 75.446 45.65C75.446 46.658 75.621 47.589 75.971 48.443C76.335 49.283 76.839 50.025 77.483 50.669C78.127 51.299 78.883 51.789 79.751 52.139C80.619 52.489 81.557 52.664 82.565 52.664ZM109.675 53V38.3H114.652C115.856 38.3 116.885 38.496 117.739 38.888C118.607 39.266 119.272 39.812 119.734 40.526C120.196 41.24 120.427 42.108 120.427 43.13C120.427 44.138 120.196 45.006 119.734 45.734C119.272 46.448 118.607 47.001 117.739 47.393C116.885 47.771 115.856 47.96 114.652 47.96H109.906L110.095 47.771V53H109.675ZM120.112 53L116.269 47.666H116.794L120.637 53H120.112ZM110.095 47.729L109.906 47.561H114.694C116.416 47.561 117.732 47.176 118.642 46.406C119.552 45.622 120.007 44.53 120.007 43.13C120.007 41.716 119.552 40.624 118.642 39.854C117.732 39.084 116.416 38.699 114.694 38.699H109.906L110.095 38.531V47.729ZM140.562 45.335H148.773V45.734H140.562V45.335ZM140.667 52.601H150.033V53H140.247V38.3H149.718V38.699H140.667V52.601Z" fill="white"/>
<defs>
<linearGradient id="paint0_linear_441_1370" x1="0" y1="14.768" x2="171.085" y2="14.768" gradientUnits="userSpaceOnUse">
<stop stop-color="#FF0E10"/>
<stop offset="0.186251" stop-color="#FD4042"/>
<stop offset="0.336021" stop-color="#FC5858"/>
<stop offset="0.523233" stop-color="#F54E4F"/>
<stop offset="0.679611" stop-color="#DF3032"/>
<stop offset="0.855811" stop-color="#D01D1E"/>
<stop offset="1" stop-color="#BC0404"/>
</linearGradient>
<linearGradient id="paint1_linear_441_1370" x1="0" y1="14.768" x2="171.085" y2="14.768" gradientUnits="userSpaceOnUse">
<stop stop-color="#FF0E10"/>
<stop offset="0.186251" stop-color="#FD4042"/>
<stop offset="0.336021" stop-color="#FC5858"/>
<stop offset="0.523233" stop-color="#F54E4F"/>
<stop offset="0.679611" stop-color="#DF3032"/>
<stop offset="0.855811" stop-color="#D01D1E"/>
<stop offset="1" stop-color="#BC0404"/>
</linearGradient>
<linearGradient id="paint2_linear_441_1370" x1="0" y1="14.768" x2="171.085" y2="14.768" gradientUnits="userSpaceOnUse">
<stop stop-color="#FF0E10"/>
<stop offset="0.186251" stop-color="#FD4042"/>
<stop offset="0.336021" stop-color="#FC5858"/>
<stop offset="0.523233" stop-color="#F54E4F"/>
<stop offset="0.679611" stop-color="#DF3032"/>
<stop offset="0.855811" stop-color="#D01D1E"/>
<stop offset="1" stop-color="#BC0404"/>
</linearGradient>
<linearGradient id="paint3_linear_441_1370" x1="0" y1="14.768" x2="171.085" y2="14.768" gradientUnits="userSpaceOnUse">
<stop stop-color="#FF0E10"/>
<stop offset="0.186251" stop-color="#FD4042"/>
<stop offset="0.336021" stop-color="#FC5858"/>
<stop offset="0.523233" stop-color="#F54E4F"/>
<stop offset="0.679611" stop-color="#DF3032"/>
<stop offset="0.855811" stop-color="#D01D1E"/>
<stop offset="1" stop-color="#BC0404"/>
</linearGradient>
<linearGradient id="paint4_linear_441_1370" x1="0" y1="14.768" x2="171.085" y2="14.768" gradientUnits="userSpaceOnUse">
<stop stop-color="#FF0E10"/>
<stop offset="0.186251" stop-color="#FD4042"/>
<stop offset="0.336021" stop-color="#FC5858"/>
<stop offset="0.523233" stop-color="#F54E4F"/>
<stop offset="0.679611" stop-color="#DF3032"/>
<stop offset="0.855811" stop-color="#D01D1E"/>
<stop offset="1" stop-color="#BC0404"/>
</linearGradient>
<linearGradient id="paint5_linear_441_1370" x1="0" y1="14.768" x2="171.085" y2="14.768" gradientUnits="userSpaceOnUse">
<stop stop-color="#FF0E10"/>
<stop offset="0.186251" stop-color="#FD4042"/>
<stop offset="0.336021" stop-color="#FC5858"/>
<stop offset="0.523233" stop-color="#F54E4F"/>
<stop offset="0.679611" stop-color="#DF3032"/>
<stop offset="0.855811" stop-color="#D01D1E"/>
<stop offset="1" stop-color="#BC0404"/>
</linearGradient>
<linearGradient id="paint6_linear_441_1370" x1="0" y1="14.768" x2="171.085" y2="14.768" gradientUnits="userSpaceOnUse">
<stop stop-color="#FF0E10"/>
<stop offset="0.186251" stop-color="#FD4042"/>
<stop offset="0.336021" stop-color="#FC5858"/>
<stop offset="0.523233" stop-color="#F54E4F"/>
<stop offset="0.679611" stop-color="#DF3032"/>
<stop offset="0.855811" stop-color="#D01D1E"/>
<stop offset="1" stop-color="#BC0404"/>
</linearGradient>
<linearGradient id="paint7_linear_441_1370" x1="0" y1="14.768" x2="171.085" y2="14.768" gradientUnits="userSpaceOnUse">
<stop stop-color="#FF0E10"/>
<stop offset="0.186251" stop-color="#FD4042"/>
<stop offset="0.336021" stop-color="#FC5858"/>
<stop offset="0.523233" stop-color="#F54E4F"/>
<stop offset="0.679611" stop-color="#DF3032"/>
<stop offset="0.855811" stop-color="#D01D1E"/>
<stop offset="1" stop-color="#BC0404"/>
</linearGradient>
<linearGradient id="paint8_linear_441_1370" x1="0" y1="14.768" x2="171.085" y2="14.768" gradientUnits="userSpaceOnUse">
<stop stop-color="#FF0E10"/>
<stop offset="0.186251" stop-color="#FD4042"/>
<stop offset="0.336021" stop-color="#FC5858"/>
<stop offset="0.523233" stop-color="#F54E4F"/>
<stop offset="0.679611" stop-color="#DF3032"/>
<stop offset="0.855811" stop-color="#D01D1E"/>
<stop offset="1" stop-color="#BC0404"/>
</linearGradient>
<linearGradient id="paint9_linear_441_1370" x1="0" y1="14.768" x2="171.085" y2="14.768" gradientUnits="userSpaceOnUse">
<stop stop-color="#FF0E10"/>
<stop offset="0.186251" stop-color="#FD4042"/>
<stop offset="0.336021" stop-color="#FC5858"/>
<stop offset="0.523233" stop-color="#F54E4F"/>
<stop offset="0.679611" stop-color="#DF3032"/>
<stop offset="0.855811" stop-color="#D01D1E"/>
<stop offset="1" stop-color="#BC0404"/>
</linearGradient>
<linearGradient id="paint10_linear_441_1370" x1="0" y1="14.768" x2="171.085" y2="14.768" gradientUnits="userSpaceOnUse">
<stop stop-color="#FF0E10"/>
<stop offset="0.186251" stop-color="#FD4042"/>
<stop offset="0.336021" stop-color="#FC5858"/>
<stop offset="0.523233" stop-color="#F54E4F"/>
<stop offset="0.679611" stop-color="#DF3032"/>
<stop offset="0.855811" stop-color="#D01D1E"/>
<stop offset="1" stop-color="#BC0404"/>
</linearGradient>
<linearGradient id="paint11_linear_441_1370" x1="0" y1="14.768" x2="171.085" y2="14.768" gradientUnits="userSpaceOnUse">
<stop stop-color="#FF0E10"/>
<stop offset="0.186251" stop-color="#FD4042"/>
<stop offset="0.336021" stop-color="#FC5858"/>
<stop offset="0.523233" stop-color="#F54E4F"/>
<stop offset="0.679611" stop-color="#DF3032"/>
<stop offset="0.855811" stop-color="#D01D1E"/>
<stop offset="1" stop-color="#BC0404"/>
</linearGradient>
</defs>
</svg>
