<svg width="44" height="44" viewBox="0 0 44 44" fill="none" xmlns="http://www.w3.org/2000/svg">
<path d="M6.80159 9.89992H34.6939C37.2203 9.89992 39.0444 12.2283 38.3514 14.5713L35.3191 24.8379C34.8516 26.4146 33.3593 27.4999 31.6616 27.4999H14.8719C13.1724 27.4999 11.6783 26.4128 11.2126 24.8379L6.80159 9.89992ZM6.80159 9.89992L5.49992 5.49992C4.58325 5.19436 2.56659 4.58325 1.83325 4.58325M30.2499 38.4999C30.9793 38.4999 31.6787 38.2102 32.1945 37.6945C32.7102 37.1787 32.9999 36.4793 32.9999 35.7499C32.9999 35.0206 32.7102 34.3211 32.1945 33.8054C31.6787 33.2897 30.9793 32.9999 30.2499 32.9999C29.5206 32.9999 28.8211 33.2897 28.3054 33.8054C27.7897 34.3211 27.4999 35.0206 27.4999 35.7499C27.4999 36.4793 27.7897 37.1787 28.3054 37.6945C28.8211 38.2102 29.5206 38.4999 30.2499 38.4999ZM15.5833 38.4999C16.3126 38.4999 17.0121 38.2102 17.5278 37.6945C18.0435 37.1787 18.3333 36.4793 18.3333 35.7499C18.3333 35.0206 18.0435 34.3211 17.5278 33.8054C17.0121 33.2897 16.3126 32.9999 15.5833 32.9999C14.8539 32.9999 14.1544 33.2897 13.6387 33.8054C13.123 34.3211 12.8333 35.0206 12.8333 35.7499C12.8333 36.4793 13.123 37.1787 13.6387 37.6945C14.1544 38.2102 14.8539 38.4999 15.5833 38.4999Z" stroke="url(#paint0_linear_346_786)" stroke-width="3" stroke-linecap="round" stroke-linejoin="round"/>
<defs>
<linearGradient id="paint0_linear_346_786" x1="1.83325" y1="21.5416" x2="38.4996" y2="21.5416" gradientUnits="userSpaceOnUse">
<stop stop-color="#FF0E10"/>
<stop offset="0.186251" stop-color="#FD4042"/>
<stop offset="0.336021" stop-color="#FC5858"/>
<stop offset="0.523233" stop-color="#F54E4F"/>
<stop offset="0.679611" stop-color="#DF3032"/>
<stop offset="0.855811" stop-color="#D01D1E"/>
<stop offset="1" stop-color="#BC0404"/>
</linearGradient>
</defs>
</svg>
