<svg width="37" height="36" viewBox="0 0 37 36" fill="none" xmlns="http://www.w3.org/2000/svg">
<path d="M12.035 3H24.635C29.435 3 33.335 6.9 33.335 11.7V24.3C33.335 26.6074 32.4184 28.8203 30.7868 30.4518C29.1552 32.0834 26.9423 33 24.635 33H12.035C7.23496 33 3.33496 29.1 3.33496 24.3V11.7C3.33496 9.39262 4.25157 7.17974 5.88313 5.54817C7.5147 3.9166 9.72758 3 12.035 3ZM11.735 6C10.3028 6 8.92928 6.56893 7.91658 7.58162C6.90389 8.59432 6.33496 9.96783 6.33496 11.4V24.6C6.33496 27.585 8.74996 30 11.735 30H24.935C26.3671 30 27.7406 29.4311 28.7533 28.4184C29.766 27.4057 30.335 26.0322 30.335 24.6V11.4C30.335 8.415 27.92 6 24.935 6H11.735ZM26.21 8.25C26.7072 8.25 27.1842 8.44754 27.5358 8.79917C27.8874 9.15081 28.085 9.62772 28.085 10.125C28.085 10.6223 27.8874 11.0992 27.5358 11.4508C27.1842 11.8025 26.7072 12 26.21 12C25.7127 12 25.2358 11.8025 24.8841 11.4508C24.5325 11.0992 24.335 10.6223 24.335 10.125C24.335 9.62772 24.5325 9.15081 24.8841 8.79917C25.2358 8.44754 25.7127 8.25 26.21 8.25ZM18.335 10.5C20.3241 10.5 22.2317 11.2902 23.6383 12.6967C25.0448 14.1032 25.835 16.0109 25.835 18C25.835 19.9891 25.0448 21.8968 23.6383 23.3033C22.2317 24.7098 20.3241 25.5 18.335 25.5C16.3458 25.5 14.4382 24.7098 13.0317 23.3033C11.6251 21.8968 10.835 19.9891 10.835 18C10.835 16.0109 11.6251 14.1032 13.0317 12.6967C14.4382 11.2902 16.3458 10.5 18.335 10.5ZM18.335 13.5C17.1415 13.5 15.9969 13.9741 15.153 14.818C14.3091 15.6619 13.835 16.8065 13.835 18C13.835 19.1935 14.3091 20.3381 15.153 21.182C15.9969 22.0259 17.1415 22.5 18.335 22.5C19.5284 22.5 20.673 22.0259 21.5169 21.182C22.3609 20.3381 22.835 19.1935 22.835 18C22.835 16.8065 22.3609 15.6619 21.5169 14.818C20.673 13.9741 19.5284 13.5 18.335 13.5Z" fill="white"/>
</svg>
