<svg width="28" height="28" viewBox="0 0 28 28" fill="none" xmlns="http://www.w3.org/2000/svg">
<path d="M15.3946 0.677734C16.9057 0.681764 17.6727 0.689824 18.3349 0.708629L18.5955 0.718031C18.8964 0.728777 19.1932 0.74221 19.5519 0.758328C20.9811 0.82549 21.9563 1.05115 22.8119 1.38293C23.6984 1.72412 24.4453 2.18619 25.1921 2.93168C25.8751 3.60316 26.4037 4.41541 26.7409 5.3119C27.0727 6.16754 27.2983 7.14273 27.3655 8.57328C27.3816 8.93058 27.395 9.22743 27.4058 9.52966L27.4138 9.79025C27.434 10.4511 27.442 11.2181 27.4447 12.7293L27.4461 13.7313V15.4909C27.4494 16.4707 27.4391 17.4505 27.4152 18.4299L27.4071 18.6905C27.3964 18.9928 27.3829 19.2896 27.3668 19.6469C27.2997 21.0775 27.0713 22.0513 26.7409 22.9083C26.4046 23.8053 25.876 24.6177 25.1921 25.2885C24.5204 25.9713 23.7083 26.4998 22.8119 26.8373C21.9563 27.169 20.9811 27.3947 19.5519 27.4619C19.2331 27.4769 18.9143 27.4903 18.5955 27.5022L18.3349 27.5102C17.6727 27.529 16.9057 27.5384 15.3946 27.5411L14.3925 27.5425H12.6342C11.654 27.5458 10.6738 27.5355 9.69386 27.5116L9.43327 27.5035C9.1144 27.4914 8.7956 27.4776 8.47688 27.4619C7.04768 27.3947 6.07249 27.169 5.21551 26.8373C4.31912 26.5006 3.5072 25.972 2.83664 25.2885C2.15299 24.6173 1.62399 23.805 1.28654 22.9083C0.954761 22.0527 0.729097 21.0775 0.661936 19.6469C0.64697 19.3282 0.633538 19.0094 0.621639 18.6905L0.614922 18.4299C0.590169 17.4505 0.578975 16.4707 0.581341 15.4909V12.7293C0.577593 11.7495 0.587444 10.7697 0.610893 9.79025L0.620295 9.52966C0.631041 9.22743 0.644474 8.93058 0.660592 8.57328C0.727754 7.14273 0.953418 6.16888 1.2852 5.3119C1.6225 4.41449 2.15255 3.60199 2.83798 2.93168C3.50838 2.24861 4.31976 1.72007 5.21551 1.38293C6.07249 1.05115 7.04634 0.82549 8.47688 0.758328C8.83418 0.74221 9.13238 0.728777 9.43327 0.718031L9.69386 0.709972C10.6733 0.686106 11.6531 0.675807 12.6329 0.679078L15.3946 0.677734ZM14.0137 7.39392C12.2325 7.39392 10.5242 8.10151 9.26465 9.36104C8.00512 10.6206 7.29752 12.3289 7.29752 14.1101C7.29752 15.8913 8.00512 17.5996 9.26465 18.8592C10.5242 20.1187 12.2325 20.8263 14.0137 20.8263C15.7949 20.8263 17.5032 20.1187 18.7628 18.8592C20.0223 17.5996 20.7299 15.8913 20.7299 14.1101C20.7299 12.3289 20.0223 10.6206 18.7628 9.36104C17.5032 8.10151 15.7949 7.39392 14.0137 7.39392ZM14.0137 10.0804C14.5429 10.0803 15.0669 10.1844 15.5559 10.3869C16.0448 10.5893 16.4891 10.8861 16.8633 11.2602C17.2376 11.6343 17.5345 12.0785 17.7371 12.5674C17.9397 13.0562 18.044 13.5802 18.0441 14.1094C18.0442 14.6386 17.94 15.1626 17.7376 15.6516C17.5352 16.1405 17.2384 16.5848 16.8643 16.9591C16.4902 17.3333 16.046 17.6302 15.5571 17.8328C15.0682 18.0354 14.5442 18.1397 14.015 18.1398C12.9463 18.1398 11.9213 17.7153 11.1656 16.9595C10.4099 16.2038 9.98534 15.1788 9.98534 14.1101C9.98534 13.0414 10.4099 12.0164 11.1656 11.2607C11.9213 10.5049 12.9463 10.0804 14.015 10.0804M21.067 5.37906C20.6217 5.37906 20.1947 5.55596 19.8798 5.87084C19.5649 6.18572 19.388 6.6128 19.388 7.05811C19.388 7.50342 19.5649 7.93049 19.8798 8.24537C20.1947 8.56025 20.6217 8.73715 21.067 8.73715C21.5123 8.73715 21.9394 8.56025 22.2543 8.24537C22.5692 7.93049 22.7461 7.50342 22.7461 7.05811C22.7461 6.6128 22.5692 6.18572 22.2543 5.87084C21.9394 5.55596 21.5123 5.37906 21.067 5.37906Z" fill="white"/>
</svg>
