<svg width="45" height="45" viewBox="0 0 45 45" fill="none" xmlns="http://www.w3.org/2000/svg">
<path d="M22.5003 0.416504C10.3103 0.416504 0.416992 10.3098 0.416992 22.4998C0.416992 34.6898 10.3103 44.5832 22.5003 44.5832C34.6903 44.5832 44.5837 34.6898 44.5837 22.4998C44.5837 10.3098 34.6903 0.416504 22.5003 0.416504ZM32.747 15.4332C32.4157 18.9223 30.9803 27.4023 30.2516 31.3111C29.9424 32.9673 29.3241 33.5194 28.7499 33.5857C27.4691 33.6961 26.4974 32.7465 25.2607 31.9294C23.3174 30.6486 22.2132 29.8536 20.3362 28.6169C18.1499 27.1815 19.5632 26.3865 20.822 25.1057C21.1532 24.7744 26.8066 19.629 26.917 19.1653C26.9323 19.095 26.9303 19.0221 26.911 18.9528C26.8918 18.8835 26.8559 18.82 26.8066 18.7678C26.6741 18.6573 26.4974 18.7015 26.3428 18.7236C26.1441 18.7678 23.0524 20.8215 17.0237 24.8848C16.1403 25.4811 15.3453 25.7903 14.6387 25.7682C13.8437 25.7461 12.342 25.3265 11.2157 24.9511C9.82449 24.5094 8.74241 24.2665 8.83074 23.4936C8.87491 23.0961 9.42699 22.6986 10.4649 22.279C16.9132 19.4744 21.1974 17.6194 23.3395 16.7361C29.4787 14.1744 30.7374 13.7328 31.5766 13.7328C31.7532 13.7328 32.1728 13.7769 32.4378 13.9978C32.6587 14.1744 32.7249 14.4173 32.747 14.594C32.7249 14.7265 32.7691 15.124 32.747 15.4332Z" fill="white"/>
</svg>
