<svg width="21" height="24" viewBox="0 0 21 24" fill="none" xmlns="http://www.w3.org/2000/svg">
<path d="M16.2582 3.68555C15.3649 2.66565 14.8725 1.35585 14.8729 0H10.8345V16.206C10.8033 17.0829 10.4331 17.9136 9.80169 18.5231C9.1703 19.1325 8.32705 19.4732 7.44952 19.4733C5.59367 19.4733 4.05149 17.9573 4.05149 16.0753C4.05149 13.8273 6.221 12.1414 8.45585 12.8341V8.70417C3.94694 8.10298 0 11.6056 0 16.0753C0 20.4274 3.60713 23.5248 7.43645 23.5248C11.5402 23.5248 14.8729 20.1921 14.8729 16.0753V7.85467C16.5105 9.03071 18.4766 9.66169 20.4927 9.65823V5.61981C20.4927 5.61981 18.0357 5.73743 16.2582 3.68555Z" fill="white"/>
</svg>
