<svg width="32" height="22" viewBox="0 0 32 22" fill="none" xmlns="http://www.w3.org/2000/svg">
<path d="M31.4384 7.89935C31.5077 5.89254 31.0688 3.90075 30.1625 2.10892C29.5476 1.37368 28.6942 0.877516 27.751 0.706873C23.8498 0.352893 19.9325 0.207808 16.0159 0.27224C12.1135 0.204883 8.2103 0.345286 4.32285 0.692853C3.55428 0.83266 2.84302 1.19316 2.27587 1.73036C1.01403 2.89406 0.873824 4.88496 0.733619 6.56741C0.5302 9.59241 0.5302 12.6276 0.733619 15.6526C0.774181 16.5996 0.915175 17.5396 1.15423 18.4567C1.32328 19.1649 1.66531 19.82 2.14968 20.3635C2.72069 20.9292 3.44851 21.3102 4.23873 21.4571C7.26141 21.8302 10.3071 21.9848 13.352 21.9198C18.2592 21.9899 22.5634 21.9198 27.6528 21.5272C28.4625 21.3893 29.2108 21.0078 29.798 20.4336C30.1905 20.0409 30.4837 19.5603 30.6532 19.0316C31.1546 17.493 31.4009 15.8827 31.3823 14.2646C31.4384 13.4795 31.4384 8.74058 31.4384 7.89935ZM12.8473 15.1058V6.42721L21.1474 10.7876C18.82 12.0774 15.7495 13.5356 12.8473 15.1058Z" fill="white"/>
</svg>
