<svg width="29" height="29" viewBox="0 0 29 29" fill="none" xmlns="http://www.w3.org/2000/svg">
<path d="M9.4064 23.9166C8.87226 23.9166 8.41665 23.7285 8.03956 23.3522C7.66327 22.9759 7.47513 22.5203 7.47513 21.9854V7.17497H6.2793V5.97914H11.0626V5.05835H18.2376V5.97914H23.021V7.17497H21.8251V21.9854C21.8251 22.5355 21.641 22.9947 21.2727 23.363C20.9035 23.7321 20.4439 23.9166 19.8939 23.9166H9.4064ZM20.6293 7.17497H8.67096V21.9854C8.67096 22.1998 8.73992 22.376 8.87784 22.5139C9.01576 22.6518 9.19195 22.7208 9.4064 22.7208H19.8939C20.0772 22.7208 20.2458 22.6443 20.3997 22.4912C20.5528 22.3373 20.6293 22.1687 20.6293 21.9854V7.17497ZM12.0289 20.3291H13.2247V9.56664H12.0289V20.3291ZM16.0756 20.3291H17.2714V9.56664H16.0756V20.3291Z" fill="url(#paint0_linear_284_596)"/>
<defs>
<linearGradient id="paint0_linear_284_596" x1="6.2793" y1="14.4875" x2="23.021" y2="14.4875" gradientUnits="userSpaceOnUse">
<stop stop-color="#FF0E10"/>
<stop offset="0.186251" stop-color="#FD4042"/>
<stop offset="0.336021" stop-color="#FC5858"/>
<stop offset="0.523233" stop-color="#F54E4F"/>
<stop offset="0.679611" stop-color="#DF3032"/>
<stop offset="0.855811" stop-color="#D01D1E"/>
<stop offset="1" stop-color="#BC0404"/>
</linearGradient>
</defs>
</svg>
