<svg width="21" height="19" viewBox="0 0 21 19" fill="none" xmlns="http://www.w3.org/2000/svg">
<path d="M3.52425 0.791992C2.60225 0.791992 1.71801 1.15883 1.06606 1.8118C0.414113 2.46476 0.0478516 3.35038 0.0478516 4.27382V4.62374L10.477 10.2486L20.9062 4.62548V4.27382C20.9062 3.35038 20.54 2.46476 19.888 1.8118C19.2361 1.15883 18.3518 0.791992 17.4298 0.791992H3.52425ZM20.9062 6.60142L10.889 12.0035C10.7624 12.0717 10.6208 12.1075 10.477 12.1075C10.3332 12.1075 10.1917 12.0717 10.0651 12.0035L0.0478516 6.60142V14.7193C0.0478516 15.6427 0.414113 16.5284 1.06606 17.1813C1.71801 17.8343 2.60225 18.2011 3.52425 18.2011H17.4298C18.3518 18.2011 19.2361 17.8343 19.888 17.1813C20.54 16.5284 20.9062 15.6427 20.9062 14.7193V6.60142Z" fill="#686868"/>
</svg>
