<svg width="22" height="26" viewBox="0 0 22 26" fill="none" xmlns="http://www.w3.org/2000/svg">
<path d="M10.991 9.94893C12.2203 9.94893 13.3993 9.45982 14.2686 8.5892C15.1379 7.71857 15.6262 6.53775 15.6262 5.3065C15.6262 4.07525 15.1379 2.89443 14.2686 2.0238C13.3993 1.15317 12.2203 0.664063 10.991 0.664062C9.76168 0.664063 8.5827 1.15317 7.71344 2.0238C6.84417 2.89443 6.35582 4.07525 6.35582 5.3065C6.35582 6.53775 6.84417 7.71857 7.71344 8.5892C8.5827 9.45982 9.76168 9.94893 10.991 9.94893ZM0.894017 19.9983C0.751321 20.3818 0.735885 20.8012 0.849997 21.1943C0.96411 21.5873 1.20169 21.9331 1.52749 22.1802C4.23322 24.2869 7.56385 25.4285 10.991 25.4237C14.5601 25.4237 17.848 24.2105 20.4638 22.174C21.1282 21.6587 21.397 20.7766 21.0942 19.9921C20.3097 17.9463 18.9242 16.1869 17.1208 14.9461C15.3173 13.7052 13.1805 13.0412 10.9925 13.0417C8.80449 13.0422 6.66804 13.7072 4.86513 14.9489C3.06223 16.1906 1.67761 17.9506 0.894017 19.9967" fill="#686868"/>
</svg>
