<svg width="298" height="679" viewBox="0 0 298 679" fill="none" xmlns="http://www.w3.org/2000/svg">
<path d="M284.181 16C291.615 16 297.642 22.0263 297.642 29.4602L297.642 398.024C297.642 398.578 297.303 399.075 296.788 399.277L279.045 406.248C278.485 406.469 278.473 407.258 279.027 407.494L296.823 415.081C297.32 415.293 297.642 415.78 297.642 416.32V664.81C297.642 672.243 291.615 678.27 284.181 678.27H15.6513C8.21747 678.27 2.19111 672.243 2.19111 664.81V415.317C2.19111 414.774 2.51718 414.284 3.01802 414.075L18.819 407.47C19.3703 407.24 19.3703 406.459 18.819 406.228L3.01802 399.624C2.51718 399.414 2.19111 398.925 2.19111 398.382L2.19111 29.4602C2.19111 22.0263 8.21743 16 15.6513 16L284.181 16Z" fill="#FAFAFA"/>
<path opacity="0.98" d="M296.394 0L-0.000244141 0L-0.000244141 371.121C50.3239 342.753 180.057 293.421 296.394 323.044L296.394 0Z" fill="#0E0E0E"/>
</svg>
