<svg width="16" height="21" viewBox="0 0 16 21" fill="none" xmlns="http://www.w3.org/2000/svg">
<path d="M2 20.5C1.45 20.5 0.979333 20.3044 0.588 19.913C0.196666 19.5217 0.000666667 19.0507 0 18.5V2.50003C0 1.95003 0.196 1.47936 0.588 1.08803C0.98 0.696697 1.45067 0.500697 2 0.500031H14C14.55 0.500031 15.021 0.696031 15.413 1.08803C15.805 1.48003 16.0007 1.9507 16 2.50003V18.5C16 19.05 15.8043 19.521 15.413 19.913C15.0217 20.305 14.5507 20.5007 14 20.5H2ZM2 18.5H14V2.50003H12V9.50003L9.5 8.00003L7 9.50003V2.50003H2V18.5Z" fill="url(#paint0_linear_436_341)"/>
<defs>
<linearGradient id="paint0_linear_436_341" x1="8.0172" y1="-3.53506" x2="24.9473" y2="10.2476" gradientUnits="userSpaceOnUse">
<stop offset="0.0729167" stop-color="#E3A455"/>
<stop offset="0.244792" stop-color="#F6DBA6"/>
<stop offset="0.434957" stop-color="#FFEBC4"/>
<stop offset="0.532623" stop-color="#F0BE79"/>
<stop offset="0.593311" stop-color="#8F653B"/>
<stop offset="0.627652" stop-color="#673D22"/>
<stop offset="0.708863" stop-color="#BA7F3B"/>
<stop offset="0.773898" stop-color="#EEBC70"/>
<stop offset="0.921875" stop-color="#3F1F0F"/>
</linearGradient>
</defs>
</svg>
