<svg width="1920" height="1020" viewBox="0 0 1920 1020" fill="none" xmlns="http://www.w3.org/2000/svg">
<path fill-rule="evenodd" clip-rule="evenodd" d="M0.000488746 21.7968L80.0005 28.312C160 34.8272 320 47.8576 480 34.8272C640 21.7968 800 -17.2943 960 8.76643C1120 34.8272 1280 126.04 1440 145.585C1600 165.131 1760 113.009 1840 86.9486L1920 60.8879L1920 1020L1840 1020C1760 1020 1600 1020 1440 1020C1280 1020 1120 1020 960.001 1020C800.001 1020 640.001 1020 480.001 1020C320.001 1020 160.001 1020 80.0005 1020L0.000510027 1020L0.000488746 21.7968Z" fill="#121212"/>
</svg>
