<svg width="1168" height="442" viewBox="0 0 1168 442" fill="none" xmlns="http://www.w3.org/2000/svg">
<path d="M8 21C8 9.95431 16.9543 1 28 1H575.637C576.459 1 577.198 1.50328 577.498 2.2686L587.857 28.632C588.184 29.4648 589.357 29.4816 589.708 28.6585L600.982 2.21561C601.296 1.4784 602.02 1 602.821 1H1148C1159.05 1 1168 9.9543 1168 21V420C1168 431.046 1159.05 440 1148 440H601.332C600.525 440 599.797 439.515 599.486 438.771L589.673 415.293C589.33 414.474 588.17 414.474 587.827 415.293L578.014 438.771C577.703 439.515 576.975 440 576.168 440H28C16.9543 440 8 431.046 8 420V21Z" fill="#FAFAFA"/>
<path opacity="0.98" d="M592.5 199.856C578.5 85.4475 510.667 17.7517 480 0H0V440.402L575.667 441.497C576.474 441.499 577.203 441.015 577.515 440.27L587.829 415.658C588.175 414.832 589.349 414.842 589.68 415.674L599.273 439.74C599.576 440.501 600.312 441 601.131 441H711C677.833 408.887 606.5 314.265 592.5 199.856Z" fill="#0E0E0E"/>
</svg>
