<svg width="3840" height="1137" viewBox="0 0 3840 1137" fill="none" xmlns="http://www.w3.org/2000/svg">
<path fill-rule="evenodd" clip-rule="evenodd" d="M0 24.297L80 31.5596C160 38.8221 320 53.3471 480 38.8221C640 24.297 800 -19.2781 960 9.77201C1120 38.8221 1280 140.497 1440 162.285C1600 184.072 1760 125.972 1840 96.9222L1920 67.8721V1137H1840C1760 1137 1600 1137 1440 1137C1280 1137 1120 1137 960 1137C800 1137 640 1137 480 1137C320 1137 160 1137 80 1137H0V24.297Z" fill="#121212"/>
<path fill-rule="evenodd" clip-rule="evenodd" d="M1920 68.3354L2000 75.3105C2080 82.2856 2240 96.2357 2400 82.2856C2560 68.3354 2720 26.4849 2880 54.3853C3040 82.2856 3200 179.937 3360 200.862C3520 221.787 3680 165.987 3760 138.086L3840 110.186V1137H3760C3680 1137 3520 1137 3360 1137C3200 1137 3040 1137 2880 1137C2720 1137 2560 1137 2400 1137C2240 1137 2080 1137 2000 1137H1920V68.3354Z" fill="#121212"/>
</svg>
