<svg width="52" height="52" viewBox="0 0 52 52" fill="none" xmlns="http://www.w3.org/2000/svg">
<path d="M18.886 8.37402C18.886 8.37402 13.6788 8.37402 8.47154 11.8457L18.886 8.37402Z" fill="white"/>
<path d="M18.886 8.37402C18.886 8.37402 13.6788 8.37402 8.47154 11.8457" stroke="white" stroke-width="1.44444" stroke-miterlimit="10" stroke-linecap="round" stroke-linejoin="round"/>
<path d="M8.91492 7.22217L7.97098 12.4503L13.1991 13.3943M39.7372 36.5061C39.7372 42.1438 35.167 46.7147 29.5286 46.7147C23.8902 46.7147 19.32 42.1438 19.32 36.5061M39.7379 35.9637V28.5191C39.7621 27.9438 39.5574 27.3824 39.1677 26.9586C38.7779 26.5347 38.2358 26.283 37.6605 26.2589C37.0851 26.2347 36.5238 26.4401 36.0999 26.8299C35.6761 27.2196 35.4244 27.7618 35.4003 28.3371M31.059 28.1926C31.0709 27.9077 31.1389 27.6279 31.259 27.3693C31.379 27.1106 31.5489 26.8782 31.7588 26.6852C31.9687 26.4921 32.2146 26.3424 32.4824 26.2444C32.7502 26.1464 33.0346 26.1021 33.3195 26.1141C33.6044 26.126 33.8842 26.194 34.1429 26.314C34.4015 26.4341 34.634 26.6039 34.827 26.8139C35.02 27.0238 35.1698 27.2696 35.2678 27.5374C35.3658 27.8052 35.41 28.0897 35.3981 28.3746" stroke="white" stroke-width="1.44444" stroke-miterlimit="10" stroke-linecap="round" stroke-linejoin="round"/>
<path d="M31.0607 28.1096C31.1069 27.5356 31.3792 27.0035 31.8177 26.6303C32.2562 26.2571 32.825 26.0733 33.3989 26.1195C33.9729 26.1657 34.505 26.4379 34.8782 26.8764C35.2515 27.3149 35.4352 27.8837 35.389 28.4577M26.6927 27.8965C26.7425 27.3317 27.0111 26.8088 27.4413 26.4394C27.8714 26.0701 28.429 25.8836 28.9948 25.9198C29.5606 25.956 30.0898 26.2121 30.4694 26.6332C30.8489 27.0544 31.0487 27.6073 31.0261 28.1739M26.692 27.8734V14.0169C26.692 13.441 26.4633 12.8887 26.056 12.4815C25.6488 12.0743 25.0965 11.8455 24.5207 11.8455C23.9448 11.8455 23.3925 12.0743 22.9853 12.4815C22.5781 12.8887 22.3493 13.441 22.3493 14.0169V31.2577M20.5127 27.6322L19.2979 26.2585C18.8978 25.8443 18.3495 25.606 17.7736 25.5961C17.1978 25.5861 16.6416 25.8053 16.2274 26.2054C15.8132 26.6056 15.5749 27.1539 15.5649 27.7297C15.555 28.3055 15.7742 28.8617 16.1743 29.276L17.3046 30.7522M17.2714 30.7146C18.4825 32.045 19.3636 33.9206 19.3189 36.6224M25.6578 9.83519C25.8782 9.49109 25.9968 9.09168 25.9999 8.68307C26.0029 8.27446 25.8904 7.8733 25.6753 7.52591C25.4601 7.17851 25.1511 6.89903 24.784 6.71973C24.4168 6.54043 24.0064 6.46861 23.6001 6.51258C23.1939 6.55654 22.8083 6.71449 22.488 6.96819C22.1677 7.22189 21.9256 7.56101 21.7898 7.94639C21.654 8.33177 21.6299 8.74771 21.7203 9.1462C21.8107 9.54468 22.012 9.90948 22.3009 10.1985" stroke="white" stroke-width="1.44444" stroke-miterlimit="10" stroke-linecap="round" stroke-linejoin="round"/>
</svg>
