<svg width="52" height="52" viewBox="0 0 52 52" fill="none" xmlns="http://www.w3.org/2000/svg">
<path d="M23.8327 11.5555C25.4282 11.5555 26.7216 10.2621 26.7216 8.66666C26.7216 7.07117 25.4282 5.77777 23.8327 5.77777C22.2372 5.77777 20.9438 7.07117 20.9438 8.66666C20.9438 10.2621 22.2372 11.5555 23.8327 11.5555Z" fill="url(#paint0_linear_236_345)"/>
<path d="M39.723 26.5027H26.723V14.4445H26.5901C26.671 14.2177 26.723 13.9765 26.723 13.7222C26.723 13.1476 26.4948 12.5965 26.0884 12.1902C25.6821 11.7838 25.131 11.5556 24.5564 11.5556C23.9817 11.5556 23.4306 11.7838 23.0243 12.1902C22.618 12.5965 22.3897 13.1476 22.3897 13.7222C22.3897 13.9772 22.4417 14.2177 22.5226 14.4445H22.3897V29.1446L22.2315 28.4245L20.4621 26.5178L16.6776 25.9718L15.1675 27.4445L16.6459 29.7917L19.5008 34.2586V37.8221L19.3672 37.8271L19.5008 38.5739V39.7222H19.7059L19.7521 39.9837L20.223 40.4445L21.7166 43.3723L25.8369 46.0677L30.3804 46.722L35.3095 45.0284L38.9683 40.5607L39.1431 39.7222H39.723V26.5027Z" fill="url(#paint1_linear_236_345)"/>
<path d="M18.8856 8.37415C18.8856 8.37415 13.6784 8.37415 8.47119 11.8459L18.8856 8.37415Z" fill="#121212"/>
<path d="M18.8856 8.37415C18.8856 8.37415 13.6784 8.37415 8.47119 11.8459" stroke="#121212" stroke-width="1.44444" stroke-miterlimit="10" stroke-linecap="round" stroke-linejoin="round"/>
<path d="M8.91465 7.22223L7.9707 12.4504L13.1989 13.3943M39.7369 36.5062C39.7369 42.1438 35.1667 46.7148 29.5283 46.7148C23.8899 46.7148 19.3197 42.1438 19.3197 36.5062M39.7377 35.9638V28.5191C39.7618 27.9438 39.5571 27.3825 39.1674 26.9586C38.7776 26.5347 38.2355 26.2831 37.6602 26.2589C37.0849 26.2348 36.5235 26.4402 36.0997 26.8299C35.6758 27.2197 35.4241 27.7618 35.4 28.3371M31.0587 28.1927C31.0707 27.9078 31.1386 27.628 31.2587 27.3693C31.3787 27.1107 31.5486 26.8782 31.7585 26.6852C31.9684 26.4922 32.2143 26.3424 32.4821 26.2444C32.7499 26.1465 33.0343 26.1022 33.3193 26.1141C33.6042 26.1261 33.8839 26.194 34.1426 26.3141C34.4012 26.4342 34.6337 26.604 34.8267 26.8139C35.0197 27.0238 35.1695 27.2697 35.2675 27.5375C35.3655 27.8053 35.4098 28.0898 35.3978 28.3747" stroke="#121212" stroke-width="1.44444" stroke-miterlimit="10" stroke-linecap="round" stroke-linejoin="round"/>
<path d="M31.0606 28.1096C31.1068 27.5357 31.3791 27.0036 31.8175 26.6303C32.256 26.2571 32.8248 26.0734 33.3988 26.1196C33.9728 26.1657 34.5049 26.438 34.8781 26.8765C35.2513 27.315 35.435 27.8838 35.3889 28.4577M26.6926 27.8966C26.7424 27.3318 27.011 26.8089 27.4412 26.4395C27.8713 26.0701 28.4288 25.8836 28.9947 25.9199C29.5605 25.9561 30.0897 26.2121 30.4692 26.6333C30.8488 27.0545 31.0486 27.6074 31.0259 28.1739M26.6919 27.8735V14.0169C26.6919 13.441 26.4631 12.8887 26.0559 12.4815C25.6487 12.0743 25.0964 11.8456 24.5205 11.8456C23.9446 11.8456 23.3924 12.0743 22.9851 12.4815C22.5779 12.8887 22.3492 13.441 22.3492 14.0169V31.2578M20.5126 27.6322L19.2978 26.2586C18.8976 25.8444 18.3493 25.6061 17.7735 25.5961C17.1977 25.5862 16.6415 25.8054 16.2272 26.2055C15.813 26.6056 15.5747 27.1539 15.5648 27.7298C15.5548 28.3056 15.774 28.8618 16.1742 29.276L17.3044 30.7523M17.2712 30.7147C18.4824 32.045 19.3635 33.9206 19.3187 36.6225M25.6577 9.83525C25.878 9.49115 25.9966 9.09174 25.9997 8.68313C26.0028 8.27452 25.8903 7.87337 25.6751 7.52597C25.46 7.17857 25.151 6.89909 24.7838 6.71979C24.4166 6.54049 24.0062 6.46868 23.6 6.51264C23.1937 6.5566 22.8082 6.71455 22.4879 6.96825C22.1676 7.22195 21.9255 7.56107 21.7897 7.94645C21.6538 8.33183 21.6297 8.74777 21.7202 9.14626C21.8106 9.54475 22.0119 9.90954 22.3008 10.1985" stroke="#121212" stroke-width="1.44444" stroke-miterlimit="10" stroke-linecap="round" stroke-linejoin="round"/>
<defs>
<linearGradient id="paint0_linear_236_345" x1="20.9438" y1="8.66666" x2="26.7216" y2="8.66666" gradientUnits="userSpaceOnUse">
<stop stop-color="#FF0E10"/>
<stop offset="0.186251" stop-color="#FD4042"/>
<stop offset="0.336021" stop-color="#FC5858"/>
<stop offset="0.523233" stop-color="#F54E4F"/>
<stop offset="0.679611" stop-color="#DF3032"/>
<stop offset="0.855811" stop-color="#D01D1E"/>
<stop offset="1" stop-color="#BC0404"/>
</linearGradient>
<linearGradient id="paint1_linear_236_345" x1="15.1675" y1="29.1388" x2="39.723" y2="29.1388" gradientUnits="userSpaceOnUse">
<stop stop-color="#FF0E10"/>
<stop offset="0.186251" stop-color="#FD4042"/>
<stop offset="0.336021" stop-color="#FC5858"/>
<stop offset="0.523233" stop-color="#F54E4F"/>
<stop offset="0.679611" stop-color="#DF3032"/>
<stop offset="0.855811" stop-color="#D01D1E"/>
<stop offset="1" stop-color="#BC0404"/>
</linearGradient>
</defs>
</svg>
