<svg width="1398" height="431" viewBox="0 0 1398 431" fill="none" xmlns="http://www.w3.org/2000/svg">
<path fill-rule="evenodd" clip-rule="evenodd" d="M1398 0L1339.75 26.3333C1281.5 52.6667 1165 105.333 1048.5 144.833C932 184.333 815.5 210.667 699 197.5C582.5 184.333 466 131.667 349.5 118.5C233 105.333 116.5 131.667 58.25 144.833L0 158V316H58.25C116.5 316 233 316 349.5 316C466 316 582.5 316 699 316C815.5 316 932 316 1048.5 316C1165 316 1281.5 316 1339.75 316H1398V0Z" fill="#1C1C1C"/>
<path fill-rule="evenodd" clip-rule="evenodd" d="M1398 57L1339.75 83.3333C1281.5 109.667 1165 162.333 1048.5 201.833C932 241.333 815.5 267.667 699 254.5C582.5 241.333 466 188.667 349.5 175.5C233 162.333 116.5 188.667 58.25 201.833L0 215V373H58.25C116.5 373 233 373 349.5 373C466 373 582.5 373 699 373C815.5 373 932 373 1048.5 373C1165 373 1281.5 373 1339.75 373H1398V57Z" fill="#161616"/>
<path fill-rule="evenodd" clip-rule="evenodd" d="M1398 115L1339.75 141.333C1281.5 167.667 1165 220.333 1048.5 259.833C932 299.333 815.5 325.667 699 312.5C582.5 299.333 466 246.667 349.5 233.5C233 220.333 116.5 246.667 58.25 259.833L0 273V431H58.25C116.5 431 233 431 349.5 431C466 431 582.5 431 699 431C815.5 431 932 431 1048.5 431C1165 431 1281.5 431 1339.75 431H1398V115Z" fill="#0B0B0B"/>
</svg>
